<?xml version="1.0" encoding="iso-8859-1"?>
<!-- Uploaded to: SVG Repo, www.svgrepo.com, Generator: SVG Repo Mixer Tools -->
<svg fill="#000000" height="800px" width="800px" version="1.1" id="Capa_1" xmlns="http://www.w3.org/2000/svg" xmlns:xlink="http://www.w3.org/1999/xlink" 
	 viewBox="0 0 490 490" xml:space="preserve">
<g>
	<g>
		<path d="M426.6,133V81.7L352.3,0H63.4v133h21v52.5h-21V490h363.2V185.5h-21V133H426.6z M312.3,35c0-5.4,4.3-10.1,10.1-10.1
			c5.4,0,10.1,4.3,10.1,10.1v45.9c0,5.4-4.3,10.1-10.1,10.1c-5.4,0-10.1-4.3-10.1-10.1V35z M260.2,35c0-5.4,4.3-10.1,10.1-10.1
			c5.4,0,10.1,4.3,10.1,10.1v45.9c0,5.4-4.3,10.1-10.1,10.1c-5.4,0-10.1-4.3-10.1-10.1V35z M207.7,35c0-5.4,4.3-10.1,10.1-10.1
			s10.1,4.3,10.1,10.1v45.9c0,5.4-4.3,10.1-10.1,10.1s-10.1-4.3-10.1-10.1V35z M155.2,35c0-5.4,4.3-10.1,10.1-10.1
			c5.4,0,10.1,4.3,10.1,10.1v45.9c0,5.4-4.3,10.1-10.1,10.1c-5.4,0-10.1-4.3-10.1-10.1V35z M102.7,81.3V35c0-5.4,4.3-10.1,10.1-10.1
			c5.8,0,10.1,4.3,10.1,10.1v45.9c0,5.4-4.3,10.1-10.1,10.1C107,91,102.7,86.7,102.7,81.3z M377.2,443.3H112.8V231h264.4V443.3z"/>
		<path d="M289.2,401.6h19.5c11.9,0,21.5-7.8,21.5-17.5V384c0-5.6-3.3-10.6-8.3-13.8c3.1-3,5.1-6.9,5.1-11.2l0,0
			c0-9.6-9.7-17.5-21.5-17.5h-16.2c-3.4,0-6.2,2.2-6.2,5v25l0,0l0,0v25C283,399.3,285.8,401.6,289.2,401.6z M295.4,351.6h10
			c5.1,0,9.2,3.3,9.2,7.5v0.1c0,4.1-4.1,7.5-9.2,7.5h-10V351.6z M295.4,376.6h13.3c5.1,0,9.2,3.3,9.2,7.5v0.1c0,4.1-4.1,7.5-9.2,7.5
			h-13.3V376.6z"/>
		<path d="M243.5,401.6c19.9,0,27.7-20,27.3-30c-0.1-2.8-2.5-5-5.6-5h-21.7c-3.1,0-5.6,2.2-5.6,5s2.5,5,5.6,5H259
			c-0.9,5.5-5.9,15-15.5,15c-6.5,0-16.1-6.5-16.1-20c0-13.4,10.5-20,16.1-20c4.3,0,8.4,2.2,11.5,6.1c1.8,2.3,5.3,2.8,7.8,1.2
			c2.5-1.6,3.2-4.7,1.4-7c-5.2-6.6-12.7-10.4-20.7-10.4c-18.7,0-27.3,17.5-27.3,30C216.2,392.1,231.9,401.6,243.5,401.6z"/>
		<path d="M159.8,383.2c0,10.1,9.2,18.4,20.6,18.4c11.4,0,20.6-8.2,20.6-18.4c0-5.5-2.7-10.4-7-13.7c3.1-3,4.9-6.9,4.9-11.3
			c0-9.2-8.3-16.6-18.6-16.6c-10.2,0-18.6,7.5-18.6,16.6c0,4.3,1.9,8.3,4.9,11.3C162.5,372.8,159.8,377.7,159.8,383.2z M180.4,351.6
			c4.7,0,8.6,3,8.6,6.6s-3.9,6.6-8.6,6.6s-8.6-3-8.6-6.6C171.8,354.6,175.8,351.6,180.4,351.6z M180.4,374.8
			c5.9,0,10.6,3.8,10.6,8.4s-4.8,8.4-10.6,8.4c-5.9,0-10.6-3.8-10.6-8.4C169.8,378.6,174.6,374.8,180.4,374.8z"/>
	</g>
</g>
</svg>